# xmcd CD database file
#
# Track frame offsets:
#	150
#	20380
#	35315
#	57570
#	74565
#
# Disc length: 1277 seconds
#
# Revision: 0
# Processed by: cddbd v1.4PL0 Copyright (c) Steve Scherf et al.
# Submitted via: CDex 1.50
#
DISCID=4104fb05
DTITLE=Saccato Set - Debut Gun E.P.
DYEAR=2003
DGENRE=Blues
TTITLE0=Debut Gun
TTITLE1=One In The Times
TTITLE2=Teun (live)
TTITLE3=Come What May
TTITLE4=77th Investigates
EXTD=YEAR: 2003
EXTT0=
EXTT1=
EXTT2=
EXTT3=
EXTT4=
PLAYORDER=
